<?xml version="1.0" encoding="utf-8"?>
<!-- Generator: Adobe Illustrator 16.0.0, SVG Export Plug-In . SVG Version: 6.00 Build 0)  -->
<!DOCTYPE svg PUBLIC "-//W3C//DTD SVG 1.1//EN" "http://www.w3.org/Graphics/SVG/1.1/DTD/svg11.dtd">
<svg version="1.1" id="Layer_1" xmlns="http://www.w3.org/2000/svg" xmlns:xlink="http://www.w3.org/1999/xlink" x="0px" y="0px"
	 width="708.662px" height="133.117px" viewBox="0 571.258 708.662 133.117" enable-background="new 0 571.258 708.662 133.117"
	 xml:space="preserve">
<g id="Group_40" transform="translate(0 92.626)">
	<g id="Group_39" transform="translate(0 -92.626)">
		<g id="Group_1" transform="translate(1.062 50.596)">
			<path id="Path_1" d="M14.021,651.632c-1.408,1.361-3.303,2.101-5.261,2.053c-3.741,0.302-7.019-2.486-7.32-6.228
				c-0.024-0.304-0.029-0.608-0.012-0.913c-0.187-3.847,2.781-7.117,6.628-7.304c0.238-0.012,0.476-0.011,0.714,0.002
				c1.908-0.004,3.738,0.756,5.083,2.109l-1.739,1.701c-0.9-0.856-2.101-1.326-3.344-1.308c-2.502-0.133-4.638,1.788-4.771,4.29
				c-0.009,0.17-0.008,0.34,0.002,0.509c-0.145,2.447,1.723,4.548,4.169,4.692c0.199,0.012,0.398,0.01,0.597-0.005
				c1.297-0.01,2.542-0.513,3.482-1.406L14.021,651.632z"/>
		</g>
		<g id="Group_2" transform="translate(14.075 50.705)">
			<path id="Path_2" d="M21.529,641.842v4.434h3.984c1.188,0.11,2.241-0.763,2.352-1.951c0.008-0.088,0.011-0.177,0.008-0.266
				c0.031-1.198-0.915-2.194-2.113-2.226c-0.087-0.003-0.174,0-0.261,0.009H21.529z M31.185,653.259h-3.112l-4.036-4.631h-2.507
				v4.631h-2.62v-13.871c2.196,0,4.392,0.02,6.59,0.02c2.527-0.217,4.752,1.657,4.968,4.185c0.012,0.135,0.017,0.271,0.017,0.406
				c0.151,2.144-1.375,4.043-3.501,4.356l4.195,4.729L31.185,653.259z"/>
		</g>
		<g id="Group_3" transform="translate(26.75 50.713)">
			<path id="Path_3" d="M46.308,653.251h-10.37v-13.852h10.37v2.533h-7.776v3.191h7.499v2.433h-7.499v3.126h7.776V653.251z"/>
		</g>
		<g id="Group_4" transform="translate(38.431 50.713)">
			<path id="Path_4" d="M59.269,642.307l-2.578,5.898h5.156L59.269,642.307z M62.889,650.641h-7.234l-1.19,2.61h-2.833l6.213-13.852
				h2.85l6.21,13.852h-2.847L62.889,650.641z"/>
		</g>
		<g id="Group_5" transform="translate(51.14 50.714)">
			<path id="Path_5" d="M73.097,641.776h-4.392V639.4h11.399v2.376H75.71v11.483h-2.613V641.776z"/>
		</g>
		<path id="Path_6" d="M149.247,690.112h2.592v13.852h-2.592V690.112z"/>
		<g id="Group_6" transform="translate(72.441 50.714)">
			<path id="Path_7" d="M105.79,653.311h-2.709L97.323,639.4h2.929l4.176,10.78l4.192-10.78h2.93L105.79,653.311z"/>
		</g>
		<g id="Group_7" transform="translate(86.18 50.713)">
			<path id="Path_8" d="M126.148,653.251h-10.367v-13.852h10.367v2.533h-7.775v3.191h7.499v2.433h-7.499v3.126h7.778
				L126.148,653.251z"/>
		</g>
		<g id="Group_8" transform="translate(107.101 50.713)">
			<path id="Path_9" d="M146.477,650.741h2.852c2.268,0.136,4.215-1.593,4.351-3.86c0.014-0.231,0.008-0.465-0.018-0.695
				c0.109-2.272-1.645-4.203-3.917-4.312c-0.139-0.007-0.277-0.007-0.416,0.001h-2.852V650.741z M156.256,646.209
				c0.265,3.614-2.45,6.759-6.064,7.024c-0.287,0.021-0.575,0.022-0.863,0.006h-5.441v-13.85h5.441
				c3.607-0.216,6.706,2.533,6.922,6.141C156.265,645.756,156.267,645.982,156.256,646.209"/>
		</g>
		<path id="Path_10" d="M281.723,690.112h2.592v13.852h-2.592V690.112z"/>
		<g id="Group_9" transform="translate(129.136 50.545)">
			<path id="Path_11" d="M184.335,642.951c-0.962-0.878-2.214-1.371-3.516-1.386c-2.608-0.036-4.754,2.049-4.791,4.657
				c-0.002,0.15,0.003,0.3,0.015,0.449c-0.146,2.418,1.696,4.495,4.113,4.641c0.219,0.014,0.438,0.01,0.656-0.01
				c1.144,0.031,2.258-0.364,3.126-1.108v-2.453H180.4v-2.344h5.936v5.847c-1.358,1.638-3.397,2.556-5.523,2.489
				c-3.667,0.366-6.936-2.31-7.301-5.977c-0.036-0.36-0.042-0.723-0.02-1.085c-0.254-3.882,2.687-7.235,6.569-7.489
				c0.25-0.017,0.501-0.02,0.752-0.01c1.93-0.004,3.782,0.754,5.155,2.109L184.335,642.951z"/>
		</g>
		<path id="Path_12" d="M334.032,690.112h2.592v13.852h-2.592V690.112z"/>
		<g id="Group_10" transform="translate(151.618 50.714)">
			<path id="Path_13" d="M208.089,641.776h-4.394V639.4h11.387v2.376h-4.383v11.483h-2.61V641.776z"/>
		</g>
		<g id="Group_11" transform="translate(163.55 50.713)">
			<path id="Path_14" d="M227.365,642.307l-2.577,5.898h5.155L227.365,642.307z M230.986,650.641h-7.234l-1.195,2.61h-2.831
				l6.215-13.852h2.85l6.211,13.852h-2.848L230.986,650.641z"/>
		</g>
		<g id="Group_12" transform="translate(177.66 50.713)">
			<path id="Path_15" d="M241.304,639.399v11.44h7.125v2.411h-9.747v-13.852H241.304z"/>
		</g>
		<g id="Group_13" transform="translate(197.975 50.512)">
			<path id="Path_16" d="M275.311,642.946c-0.783-1.011-2.003-1.584-3.281-1.542c-1.938,0-2.87,0.812-2.87,1.842
				c0,1.21,1.43,1.543,3.089,1.739c2.889,0.358,5.584,1.106,5.584,4.413c0,3.086-2.732,4.412-5.818,4.412
				c-2.549,0.346-5.016-1.046-6.04-3.404l2.173-1.128c0.72,1.47,2.271,2.343,3.899,2.198c1.641,0,3.188-0.574,3.188-2.078
				c0-1.306-1.369-1.84-3.206-2.037c-2.831-0.337-5.444-1.089-5.444-4.196c0-2.853,2.812-4.018,5.364-4.036
				c2.199-0.237,4.331,0.841,5.444,2.751L275.311,642.946z"/>
		</g>
		<g id="Group_14" transform="translate(210.632 50.595)">
			<path id="Path_17" d="M285.553,646.58c-0.176,2.423,1.646,4.529,4.069,4.705c0.16,0.011,0.321,0.014,0.481,0.008
				c2.421,0.088,4.455-1.804,4.543-4.226c0.006-0.167,0.002-0.334-0.011-0.501c0.263-2.462-1.52-4.671-3.981-4.935
				c-0.183-0.02-0.367-0.027-0.551-0.024c-2.487-0.039-4.536,1.945-4.575,4.433C285.525,646.22,285.533,646.4,285.553,646.58
				 M297.206,646.528c0.202,3.748-2.672,6.95-6.42,7.152c-0.228,0.013-0.455,0.014-0.683,0.003c-3.722,0.214-6.911-2.63-7.125-6.352
				c-0.016-0.263-0.015-0.526,0.001-0.789c-0.215-3.814,2.704-7.081,6.52-7.295c0.201-0.012,0.402-0.014,0.604-0.008
				c3.799-0.128,6.982,2.848,7.111,6.646C297.221,646.1,297.219,646.315,297.206,646.528"/>
		</g>
		<g id="Group_15" transform="translate(224.524 50.713)">
			<path id="Path_18" d="M304.265,639.399v11.44h7.124v2.411h-9.746v-13.852H304.265z"/>
		</g>
		<g id="Group_16" transform="translate(236.116 50.723)">
			<path id="Path_19" d="M329.367,639.413v7.935c0.319,3.09-1.926,5.854-5.016,6.173c-0.325,0.034-0.651,0.039-0.977,0.017
				c-3.186,0.217-5.944-2.19-6.161-5.376c-0.019-0.271-0.018-0.543,0.002-0.813v-7.935h2.595v7.935
				c-0.235,1.862,1.083,3.562,2.944,3.797c0.212,0.027,0.426,0.034,0.639,0.021c2.158,0,3.382-1.446,3.382-3.817v-7.935H329.367z"/>
		</g>
		<g id="Group_17" transform="translate(249.047 50.714)">
			<path id="Path_20" d="M338.985,641.776h-4.396V639.4h11.39v2.376h-4.385v11.483h-2.608V641.776z"/>
		</g>
		<path id="Path_21" d="M613.044,690.112h2.594v13.852h-2.594V690.112z"/>
		<g id="Group_18" transform="translate(270.668 50.595)">
			<path id="Path_22" d="M366.207,646.58c-0.174,2.425,1.65,4.531,4.075,4.705c0.158,0.011,0.317,0.014,0.476,0.008
				c2.42,0.089,4.454-1.801,4.543-4.221c0.006-0.169,0.003-0.338-0.011-0.506c0.263-2.462-1.52-4.671-3.981-4.935
				c-0.183-0.02-0.367-0.027-0.551-0.024c-2.487-0.039-4.535,1.945-4.575,4.433C366.18,646.22,366.187,646.4,366.207,646.58
				 M377.861,646.528c0.201,3.748-2.673,6.95-6.421,7.152c-0.228,0.013-0.455,0.014-0.683,0.003
				c-3.722,0.212-6.91-2.633-7.123-6.354c-0.015-0.263-0.015-0.525,0.001-0.787c-0.214-3.814,2.705-7.081,6.52-7.295
				c0.201-0.011,0.401-0.014,0.603-0.008c3.798-0.13,6.981,2.844,7.111,6.642C377.877,646.097,377.874,646.313,377.861,646.528"/>
		</g>
		<g id="Group_19" transform="translate(284.645 50.705)">
			<path id="Path_23" d="M391.31,639.388h2.61v13.871h-1.619v0.023l-7.277-9.359v9.336h-2.619v-13.852h2.108l6.797,8.591V639.388z"
				/>
		</g>
		<g id="Group_20" transform="translate(297.338 50.512)">
			<path id="Path_24" d="M408.806,642.946c-0.783-1.011-2.004-1.584-3.281-1.542c-1.942,0-2.868,0.812-2.868,1.842
				c0,1.21,1.425,1.543,3.084,1.739c2.892,0.358,5.584,1.106,5.584,4.413c0,3.086-2.732,4.412-5.823,4.412
				c-2.546,0.342-5.009-1.049-6.032-3.404l2.173-1.128c0.719,1.47,2.27,2.344,3.899,2.198c1.641,0,3.188-0.574,3.188-2.078
				c0-1.306-1.369-1.84-3.206-2.037c-2.834-0.337-5.442-1.089-5.442-4.196c0-2.853,2.812-4.018,5.355-4.036
				c2.2-0.238,4.334,0.84,5.448,2.751L408.806,642.946z"/>
		</g>
		<g id="Group_21" transform="translate(1.623 42.598)">
			<path id="Path_25" d="M4.451,629.378c-0.168-0.295-0.352-0.579-0.506-0.881l-1.765,0.881H4.451z"/>
		</g>
		<g id="Group_22" transform="translate(1.038 15.607)">
			<path id="Path_26" d="M64.197,656.369c0.146-1.061,0.225-2.13,0.234-3.201c0-17.524-16.25-20.311-31.918-23.331
				c-13.693-2.555-24.841-4.992-24.841-15.319c0-13,15.089-16.479,24.606-16.479c9.17,0.114,18.685,1.507,24.606,11.014l5.104-3.018
				c-8.008-11.952-18.106-13.809-29.713-13.809c-13.358,0-31.217,5.339-30.871,22.517c0,14.973,15.205,17.988,30.057,20.892
				c13.332,2.56,26.803,5.222,26.69,17.408c-0.006,1.115-0.124,2.228-0.352,3.32L64.197,656.369z"/>
		</g>
		<g id="Group_23" transform="translate(31.095 16.102)">
			<path id="Path_27" d="M95.513,636.074v-5.688H47.941v-31.569h49.902V592.9H41.776v62.974h6.156v-19.8H95.513z"/>
		</g>
		<g id="Group_24" transform="translate(59.074 16.101)">
			<path id="Path_28" d="M91.785,631.779l40.852-38.299v-0.582h-7.546l-39.459,37.027v-37.027h-6.267v62.975h6.267v-21.773
				l23.29,21.773h8.493L91.785,631.779z"/>
		</g>
		<g id="Group_25" transform="translate(83.82 42.598)">
			<path id="Path_29" d="M114.881,629.378c-0.169-0.295-0.352-0.579-0.504-0.881l-1.767,0.881H114.881z"/>
		</g>
		<g id="Group_26" transform="translate(83.234 15.607)">
			<path id="Path_30" d="M174.623,656.369c0.146-1.061,0.225-2.13,0.234-3.201c0-17.524-16.248-20.311-31.916-23.331
				c-13.693-2.555-24.841-4.992-24.841-15.319c0-13,15.087-16.479,24.606-16.479c9.17,0.114,18.685,1.507,24.606,11.014l5.104-3.018
				c-8.008-11.952-18.104-13.809-29.711-13.809c-13.344,0-31.22,5.339-30.871,22.517c0,14.973,15.205,17.988,30.058,20.892
				c13.327,2.56,26.802,5.222,26.685,17.408c-0.006,1.115-0.124,2.228-0.352,3.32L174.623,656.369z"/>
		</g>
		<g id="Group_27" transform="translate(113.295 16.102)">
			<path id="Path_31" d="M205.942,636.074v-5.688H158.37v-31.569h49.902V592.9h-56.063v62.974h6.149v-19.8H205.942z"/>
		</g>
		<path id="Path_32" d="M396.978,608.999h-6.153v62.975h6.153V608.999z"/>
		<g id="Group_28" transform="translate(142.31 16.101)">
			<path id="Path_33" d="M193.862,592.898h-2.672v62.975h6.267V607.06l39.862,48.814h7.769L193.862,592.898z"/>
		</g>
		<g id="Group_29" transform="translate(180.24 16.102)">
			<path id="Path_34" d="M288.69,655.874v-15.27l32.375-47.008v-0.703h-18.457l-21.584,33.551L260.366,592.9h-18.221v0.703
				l31.215,47.008v15.27L288.69,655.874z"/>
		</g>
		<path id="Path_35" d="M517.543,608.999h-15.212v62.975h15.202L517.543,608.999z"/>
		<g id="Group_30" transform="translate(224.555 16.052)">
			<path id="Path_36" d="M317.006,633.222v-25.998h23.325c9.634,0,13.932,6.5,13.932,12.999c0,6.498-4.188,12.999-13.932,12.999
				H317.006z M349.037,645.409c15.437-3.136,20.543-14.39,20.543-25.53c0-14.047-10.099-26.814-29.252-26.929
				c-12.889,0-25.759-0.117-38.646-0.117v63.082h15.321v-8.88h14.738l7.752,8.88h18.87L349.037,645.409z"/>
		</g>
		<g id="Group_31" transform="translate(255.505 16.151)">
			<path id="Path_37" d="M429.261,655.825v-62.859h-17.524L386.319,627.9l-25.415-34.935h-17.64v62.859h15.314v-40.692
				l25.884,35.401h3.014l26.466-35.284v40.575H429.261z"/>
		</g>
		<path id="Path_38" d="M708.658,608.999h-15.2v62.975h15.2V608.999z"/>
		<path id="Path_39" d="M517.543,593.802h-15.212v10.911h15.202L517.543,593.802z"/>
		<path id="Path_40" d="M708.66,593.802h-15.205v10.911h15.205V593.802z"/>
		<g id="Group_32" transform="translate(0)">
			<path id="Path_41" d="M65.235,571.268h-6.397c-2.283,11.482-16.376,13.854-25.53,13.854c-9.671,0-21.939-4.591-27.233-13.854
				H3.803L0,573.17c6.267,12.421,20.658,17.642,33.308,17.642c12.753,0,29.797-3.888,31.928-19.542"/>
		</g>
		<g id="Group_33" transform="translate(31.096 0)">
			<path id="Path_42" d="M99.229,583.49H47.931v-12.232h-6.166v18.279h57.453L99.229,583.49z"/>
		</g>
		<path id="Path_43" d="M144.705,571.268h-6.267v18.149h6.267V571.268z"/>
		<g id="Group_34" transform="translate(71.686)">
			<path id="Path_44" d="M96.309,571.268l19.538,18.265h7.881v-0.455l-18.926-17.81H96.309z"/>
		</g>
		<g id="Group_35" transform="translate(82.196)">
			<path id="Path_45" d="M175.664,571.268h-6.398c-2.28,11.482-16.374,13.854-25.53,13.854c-9.671,0-21.939-4.591-27.233-13.854
				h-2.269l-3.806,1.902c6.269,12.421,20.66,17.642,33.308,17.642c12.751,0,29.797-3.888,31.925-19.542"/>
		</g>
		<g id="Group_36" transform="translate(113.295 0)">
			<path id="Path_46" d="M209.657,583.49h-51.299v-12.232h-6.149v18.279h57.448V583.49z"/>
		</g>
		<path id="Path_47" d="M339.767,571.268h-6.269v18.265h6.269V571.268z"/>
		<g id="Group_37" transform="translate(161.994 0)">
			<path id="Path_48" d="M232.554,589.532h2.439v-18.265h-6.145v4.218l-3.436-4.218h-7.767L232.554,589.532z"/>
		</g>
		<path id="Path_49" d="M468.93,571.268h-15.326v18.265h15.326V571.268z"/>
		<path id="Path_50" d="M517.543,571.268h-15.212v18.265h15.202L517.543,571.268z"/>
		<path id="Path_51" d="M541.561,571.268h-15.321v18.265h15.321V571.268z"/>
		<g id="Group_38" transform="translate(240.689 0)">
			<path id="Path_52" d="M339.287,589.532h18.225v-1.043l-15.279-17.222H323.36L339.287,589.532z"/>
		</g>
		<path id="Path_53" d="M614.084,571.268H598.77v18.387h15.314V571.268z"/>
		<path id="Path_54" d="M684.766,571.268h-15.319v18.387h15.319V571.268z"/>
		<path id="Path_55" d="M693.458,589.532h15.2v-18.265h-15.2V589.532z"/>
	</g>
</g>
</svg>
